# xmcd CD database file
#
# Track frame offsets:
#	150
#	34320
#	74871
#	104744
#	132239
#	192401
#
# Disc length: 2949 seconds
#
# Revision: 0
# Processed by: cddbd v1.5.1PL0 Copyright (c) Steve Scherf et al.
# Submitted via: CDex 1.50
#
DISCID=620b8306
DTITLE=Wayne Shorter - Vienne 2003
DYEAR=2003
DGENRE=Jazz
TTITLE0=Vendiendo Alegria I
TTITLE1=Over Shadow Hillway
TTITLE2=Midnight In Carlotta's Hair
TTITLE3=Joy Rider
TTITLE4=Angola
TTITLE5=Vendiendo Alegria II
EXTD=YEAR: 2003
EXTT0=
EXTT1=
EXTT2=
EXTT3=
EXTT4=
EXTT5=
PLAYORDER=
